<svg width="10" height="8" viewBox="0 0 10 8" fill="none" xmlns="http://www.w3.org/2000/svg">
<path fill-rule="evenodd" clip-rule="evenodd" d="M0 4C4.93945e-09 3.58579 0.335786 3.25 0.75 3.25H7.38792L5.23017 1.29063C4.93159 1.00353 4.92228 0.528748 5.20938 0.230169C5.49647 -0.0684092 5.97125 -0.077719 6.26983 0.209376L9.76983 3.45938C9.91689 3.60078 10 3.79599 10 4C10 4.20401 9.91689 4.39922 9.76983 4.54063L6.26983 7.79063C5.97125 8.07772 5.49647 8.06841 5.20938 7.76983C4.92228 7.47125 4.93159 6.99647 5.23017 6.70938L7.38792 4.75H0.75C0.335786 4.75 -4.93945e-09 4.41421 0 4Z" fill="#1A1A1A"/>
</svg>
