<svg width="10" height="8" viewBox="0 0 10 8" fill="none" xmlns="http://www.w3.org/2000/svg">
<path fill-rule="evenodd" clip-rule="evenodd" d="M10 4C10 4.41422 9.66421 4.75 9.25 4.75H2.61208L4.76983 6.70938C5.06841 6.99647 5.07772 7.47125 4.79062 7.76983C4.50353 8.06841 4.02875 8.07772 3.73017 7.79063L0.230168 4.54063C0.0831098 4.39922 -8.91769e-09 4.20401 0 4C8.91769e-09 3.79599 0.0831099 3.60078 0.230168 3.45938L3.73017 0.209376C4.02875 -0.077719 4.50353 -0.0684094 4.79062 0.230169C5.07772 0.528748 5.06841 1.00353 4.76983 1.29063L2.61208 3.25L9.25 3.25C9.66421 3.25 10 3.58579 10 4Z" fill="#1A1A1A"/>
</svg>
