<svg width="22" height="17" viewBox="0 0 22 17" fill="none" xmlns="http://www.w3.org/2000/svg">
<path d="M11.001 11.5C12.6578 11.5 14.001 10.1569 14.001 8.5C14.001 6.84315 12.6578 5.5 11.001 5.5C9.34412 5.5 8.00098 6.84315 8.00098 8.5C8.00098 10.1569 9.34412 11.5 11.001 11.5Z" fill="#4C4C4D"/>
<path fill-rule="evenodd" clip-rule="evenodd" d="M0.324388 7.9467C1.81164 3.47571 6.02889 0.25 11.0015 0.25C15.9718 0.25 20.1874 3.47271 21.6765 7.94045C21.7969 8.30152 21.797 8.69217 21.6769 9.05331C20.1896 13.5243 15.9723 16.75 10.9997 16.75C6.02945 16.75 1.81381 13.5273 0.324715 9.05955C0.204374 8.69849 0.204259 8.30783 0.324388 7.9467ZM16.251 8.5C16.251 11.3995 13.9005 13.75 11.001 13.75C8.10148 13.75 5.75098 11.3995 5.75098 8.5C5.75098 5.6005 8.10148 3.25 11.001 3.25C13.9005 3.25 16.251 5.6005 16.251 8.5Z" fill="#4C4C4D"/>
</svg>
