<svg width="20" height="16" viewBox="0 0 20 16" fill="none" xmlns="http://www.w3.org/2000/svg">
<path fill-rule="evenodd" clip-rule="evenodd" d="M3.28033 0.21967C2.98744 -0.0732233 2.51256 -0.0732233 2.21967 0.21967C1.92678 0.512563 1.92678 0.987437 2.21967 1.28033L16.7197 15.7803C17.0126 16.0732 17.4874 16.0732 17.7803 15.7803C18.0732 15.4874 18.0732 15.0126 17.7803 14.7197L16.0352 12.9745C17.5064 11.8594 18.6595 10.3465 19.3344 8.59593C19.4814 8.21437 19.4816 7.79127 19.3347 7.40962C17.892 3.66051 14.256 1 9.99859 1C8.28207 1 6.66657 1.43249 5.2551 2.19444L3.28033 0.21967ZM7.75194 4.69128L8.84367 5.78301C9.18951 5.60223 9.58291 5.5 10.0002 5.5C11.3809 5.5 12.5002 6.61929 12.5002 8C12.5002 8.41727 12.398 8.81067 12.2172 9.15651L13.3091 10.2484C13.7454 9.60769 14.0004 8.83362 14.0004 8C14.0004 5.79086 12.2095 4 10.0004 4C9.16675 4 8.39268 4.25501 7.75194 4.69128Z" fill="#1A1A1A"/>
<path d="M10.7484 11.9302L13.2711 14.4529C12.2462 14.8074 11.1458 15 10.0004 15C5.74298 15 2.10698 12.3395 0.664255 8.59038C0.517392 8.20873 0.517518 7.78563 0.66461 7.40408C1.15603 6.12932 1.90108 4.98057 2.83791 4.01969L6.0702 7.25198C6.02436 7.4943 6.00037 7.74435 6.00037 8C6.00037 10.2091 7.79123 12 10.0004 12C10.256 12 10.5061 11.976 10.7484 11.9302Z" fill="#1A1A1A"/>
</svg>
